<svg width="17" height="26" viewBox="0 0 17 26" fill="none" xmlns="http://www.w3.org/2000/svg">
<mask id="path-1-inside-1_101_17" fill="white">
<path d="M13.894 1.79106C13.1223 3.7021 1.01709 25.5 0.0168791 25.5944C-0.48291 25 10.2873 2.45057 10.8104 1.15385C11.5813 -0.757292 14.6657 -0.119988 13.894 1.79106Z"/>
</mask>
<path d="M13.894 1.79106C13.1223 3.7021 1.01709 25.5 0.0168791 25.5944C-0.48291 25 10.2873 2.45057 10.8104 1.15385C11.5813 -0.757292 14.6657 -0.119988 13.894 1.79106Z" fill="#EFEFEF"/>
<path d="M0.0168791 25.5944L-0.365806 25.9162C-0.260162 26.0418 -0.0995816 26.1076 0.0638408 26.0922L0.0168791 25.5944ZM10.8104 1.15385L10.3467 0.966804L10.3467 0.966804L10.8104 1.15385ZM0.0168791 25.5944L0.0638408 26.0922C0.178187 26.0814 0.26719 26.0383 0.318835 26.0089C0.375245 25.9769 0.42451 25.9394 0.464822 25.9054C0.545279 25.8376 0.626908 25.7519 0.706322 25.6606C0.866939 25.476 1.06017 25.2197 1.27764 24.9105C1.71463 24.2893 2.2788 23.4124 2.92414 22.3666C4.21624 20.2726 5.85061 17.4734 7.47557 14.6215C9.10101 11.7687 10.7194 8.85902 11.98 6.54226C13.2308 4.2435 14.151 2.48989 14.3576 1.97827L13.894 1.79106L13.4304 1.60385C13.2511 2.04775 12.3688 3.73552 11.1016 6.0643C9.84423 8.37507 8.22907 11.2791 6.60671 14.1264C4.98388 16.9746 3.35617 19.7621 2.07311 21.8415C1.43087 22.8823 0.879195 23.7388 0.459721 24.3352C0.248954 24.6348 0.078802 24.8584 -0.0481667 25.0043C-0.112546 25.0783 -0.155759 25.1207 -0.179825 25.141C-0.191774 25.151 -0.189691 25.1477 -0.175211 25.1395C-0.165496 25.134 -0.113172 25.1044 -0.0300826 25.0966L0.0168791 25.5944ZM13.894 1.79106L14.3576 1.97827C14.6016 1.37398 14.5604 0.80123 14.2663 0.345425C13.9839 -0.0922272 13.5144 -0.35081 13.0318 -0.450522C12.0741 -0.648427 10.8403 -0.257064 10.3467 0.966804L10.8104 1.15385L11.2741 1.34089C11.5513 0.65362 12.2452 0.408065 12.8295 0.528789C13.1179 0.588391 13.323 0.728009 13.426 0.887611C13.5173 1.02906 13.5722 1.25262 13.4304 1.60385L13.894 1.79106ZM10.8104 1.15385L10.3467 0.966804C10.0908 1.6012 7.28127 7.53299 4.57561 13.4289C3.22755 16.3665 1.90949 19.2864 0.959165 21.5107C0.484509 22.6216 0.0985717 23.566 -0.153765 24.2547C-0.279234 24.5971 -0.376179 24.8885 -0.433899 25.1103C-0.462206 25.219 -0.485899 25.329 -0.495356 25.4282C-0.500026 25.4771 -0.503097 25.5413 -0.494793 25.6103C-0.487783 25.6686 -0.465484 25.7976 -0.365806 25.9162L0.0168791 25.5944L0.399565 25.2726C0.483623 25.3725 0.495808 25.4723 0.498041 25.4908C0.501568 25.5201 0.499059 25.5343 0.500125 25.5231C0.502142 25.502 0.510621 25.4514 0.53387 25.3621C0.579264 25.1877 0.662972 24.9323 0.785192 24.5987C1.02823 23.9354 1.40581 23.0105 1.87875 21.9036C2.82361 19.6921 4.13708 16.7822 5.48448 13.846C8.16975 7.9945 11.0069 2.00322 11.2741 1.34089L10.8104 1.15385Z" fill="#EFEFEF" mask="url(#path-1-inside-1_101_17)"/>
<path d="M5.15415 1.40564C5.15415 1.40564 3.27112 4.35755 4.35152 5.90856C6.13337 8.46656 8.77631 1.54768 12.3778 2.04891C14.6047 2.35885 15.5881 4.09703 15.5883 5.90856C15.5885 8.48166 12.4617 8.34994 12.3778 11.0548C12.3135 13.1257 18.6051 18.9184 14.7859 21.9904C13.3018 23.1842 10.4133 23.6574 8.36491 23.277C6.16296 22.8681 5.95703 20.7039 7.56228 18.7741" stroke="#EFEFEF" stroke-width="1.1"/>
</svg>
